<svg id="Capa_1" data-name="Capa 1" xmlns="http://www.w3.org/2000/svg" viewBox="0 0 24 24"><path d="M18.85,22.23h1.28a1.55,1.55,0,0,1-1.65,1.62H5.56a1.58,1.58,0,0,1-1.69-1.6H5.33a3.91,3.91,0,0,1-.41-2.5c0-1.84,0-3.67,0-5.51a1.64,1.64,0,0,1,1.8-1.82H17.29a1.63,1.63,0,0,1,1.8,1.82c0,2.13,0,4.27,0,6.41A12.3,12.3,0,0,1,18.85,22.23ZM12,15.67a1.63,1.63,0,1,0,1.61,1.65A1.63,1.63,0,0,0,12,15.67Z"/><path d="M16.89,5.48a4.91,4.91,0,0,1-6.3,5.08A4.86,4.86,0,0,1,7.12,6.2a6.53,6.53,0,0,1,.4-3.15A4.9,4.9,0,0,1,16.89,5C16.9,5.13,16.89,5.3,16.89,5.48Z"/></svg>