<svg id="Capa_1" data-name="Capa 1" xmlns="http://www.w3.org/2000/svg" viewBox="0 0 24 24"><path d="M12,23.68H10.86c-.61,0-.73-.12-.83-.73-.13-.78-.25-1.57-.41-2.34a.76.76,0,0,0-.36-.43c-.21-.13-.48-.14-.68-.28A1,1,0,0,0,7.14,20c-.5.43-1.08.76-1.61,1.15a.64.64,0,0,1-1-.1q-.83-.85-1.68-1.68a.64.64,0,0,1-.07-1c.47-.63.91-1.29,1.39-1.92a.52.52,0,0,0,.06-.67,1.35,1.35,0,0,1-.22-.49c-.14-.83-.68-1.08-1.44-1.14-.56,0-1.1-.21-1.66-.28s-.64-.32-.63-.77c0-.76,0-1.52,0-2.28,0-.6.12-.73.73-.83.77-.13,1.54-.23,2.3-.39a1,1,0,0,0,.46-.39c.13-.19.14-.45.26-.63A1.13,1.13,0,0,0,3.9,7.05c-.41-.49-.74-1-1.11-1.58a.57.57,0,0,1,.07-.84c.6-.59,1.2-1.18,1.78-1.78a.58.58,0,0,1,.87-.08c.67.49,1.35,1,2,1.45a.54.54,0,0,0,.67.06A2.52,2.52,0,0,1,9,3.93c.54-.08.66-.43.72-.88C9.8,2.36,9.94,1.68,10,1a.68.68,0,0,1,.79-.67c.79,0,1.59,0,2.38,0a.61.61,0,0,1,.7.59c.12.8.29,1.6.41,2.39,0,.31.16.51.49.58a2.08,2.08,0,0,1,.77.31c.44.32.76.17,1.13-.12.57-.45,1.19-.85,1.76-1.28a.6.6,0,0,1,.91.08c.57.58,1.14,1.15,1.72,1.71a.64.64,0,0,1,.08,1c-.47.65-.92,1.33-1.4,2-.18.23-.26.44-.06.7a.9.9,0,0,1,.16.36c.13.91.75,1.17,1.57,1.23.54,0,1.08.16,1.62.24a.63.63,0,0,1,.62.73q0,1.22,0,2.43a.63.63,0,0,1-.6.7c-.84.13-1.69.29-2.52.46a.69.69,0,0,0-.4.33c-.14.26-.18.58-.34.82A.89.89,0,0,0,20,16.74c.44.55.83,1.15,1.25,1.72a.6.6,0,0,1-.06.91c-.6.57-1.18,1.16-1.75,1.75a.63.63,0,0,1-.92.06c-.66-.48-1.33-.92-2-1.4a.55.55,0,0,0-.71-.07,2.43,2.43,0,0,1-.81.35c-.52.1-.65.43-.71.9-.09.71-.26,1.42-.37,2.14a.61.61,0,0,1-.71.58ZM15.55,12A3.55,3.55,0,1,0,12,15.56,3.57,3.57,0,0,0,15.55,12Z"/></svg>