<svg id="Capa_1" data-name="Capa 1" xmlns="http://www.w3.org/2000/svg" viewBox="0 0 24 24"><defs><style>.cls-1{fill:white}</style></defs><path class="cls-1" d="M11.35,16.6v0Z"/><path d="M11.35,14.63c0-.66,0-1.32,0-2a3,3,0,0,0-3.1-3.28c-1.67,0-3.33,0-5,0a2.94,2.94,0,0,0-3.09,3.1v8.26a2.94,2.94,0,0,0,3.1,3.1c1.63,0,3.25,0,4.87,0a3,3,0,0,0,3.23-3.23v-6Z"/><path d="M12.69,11.66a2.87,2.87,0,0,0,3,3c1.7,0,3.41,0,5.11,0a2.93,2.93,0,0,0,3-3c0-2.78,0-5.55,0-8.33A2.94,2.94,0,0,0,20.73.15H15.86a3,3,0,0,0-3.21,3.19c0,1.37,0,2.75,0,4.13h0C12.68,8.86,12.65,10.26,12.69,11.66Z"/><path d="M21,16c-1.83,0-3.65,0-5.48,0a2.81,2.81,0,0,0-2.8,2.46,13.29,13.29,0,0,0,0,2.82,2.88,2.88,0,0,0,2.94,2.6c.88,0,1.77,0,2.65,0s1.77,0,2.65,0A2.94,2.94,0,0,0,23.84,21c0-.74,0-1.48,0-2.22A2.91,2.91,0,0,0,21,16Z"/><path d="M8.32.16H5.79c-.88,0-1.77,0-2.65,0a2.93,2.93,0,0,0-3,2.95c0,.66,0,1.32,0,2a3,3,0,0,0,3,3c1.76,0,3.53,0,5.3,0A2.82,2.82,0,0,0,11.26,5.6a12.66,12.66,0,0,0,0-2.82A2.88,2.88,0,0,0,8.32.16Z"/></svg>