<svg id="Capa_1" data-name="Capa 1" xmlns="http://www.w3.org/2000/svg" viewBox="0 0 300 120.08"><defs><style>.cls-1{fill:#5359a3;}.cls-2{fill:#312e49;}</style></defs><path stroke="white"  stroke-width="2" class="cls-1" d="M291.4,60a12.82,12.82,0,0,0-5-4.28L263.17,44c-2.18-1.05-3.53-1.21-4.51-.59s-1.42,2-1.42,4.3v1.5a8.76,8.76,0,0,0,1,4.7,8.83,8.83,0,0,0,3.79,3l18.47,9,.21.1-.23.12-18.44,9a8.87,8.87,0,0,0-3.8,3,8.82,8.82,0,0,0-1,4.71V84.3c0,2.36.44,3.68,1.42,4.3A2.35,2.35,0,0,0,260,89a7.77,7.77,0,0,0,3.2-1L286.4,76.36a12.74,12.74,0,0,0,5-4.26A11.27,11.27,0,0,0,292.93,66,11.23,11.23,0,0,0,291.4,60"/><path class="cls-1" stroke="white" stroke-width="2" d="M87,20.19c-.63-.83-2.21-1.25-4.7-1.25h-2c-2.47,0-4.28.41-5.37,1.22s-2,2.43-2.85,4.82l-22,70c-.8,2.41-.9,4.06-.27,4.89s2.2,1.25,4.69,1.25h1.66c2.47,0,4.28-.41,5.37-1.22s2-2.38,2.85-4.71L86.71,25c.81-2.34.9-3.95.28-4.78"/><path class="cls-1" stroke="white" stroke-width="2" d="M41.34,43.44c-1-.63-2.35-.45-4.53.61L13.6,55.69A12.66,12.66,0,0,0,8.6,60,11.27,11.27,0,0,0,7.07,66,11.25,11.25,0,0,0,8.6,72.1a12.82,12.82,0,0,0,5,4.28L36.83,88A7.82,7.82,0,0,0,40,89a2.55,2.55,0,0,0,1.34-.36c1-.62,1.42-2,1.42-4.31V82.81a8.76,8.76,0,0,0-1-4.7,8.83,8.83,0,0,0-3.79-3l-18.47-9-.21-.1.23-.12,18.44-9a8.87,8.87,0,0,0,3.8-3,8.82,8.82,0,0,0,1-4.71v-1.5c0-2.35-.44-3.68-1.42-4.3"/><path class="cls-2" stroke="white" stroke-width="2" d="M139.09,39.32H137c-2.57,0-4.28.41-5.08,1.21s-1.21,2.5-1.21,5.08V91.35c0,2.57.41,4.28,1.21,5.08s2.5,1.21,5.08,1.21h2.12c2.57,0,4.28-.41,5.08-1.21s1.21-2.51,1.21-5.08V45.61c0-2.57-.41-4.28-1.21-5.08s-2.51-1.21-5.08-1.21"/><path class="cls-2" stroke="white" stroke-width="2" d="M239.24,39.32h-2.13c-2.57,0-4.28.41-5.08,1.21s-1.2,2.5-1.2,5.08V91.35c0,2.57.41,4.28,1.2,5.08s2.51,1.21,5.08,1.21h2.13c2.57,0,4.28-.41,5.08-1.21s1.2-2.51,1.2-5.08V45.61c0-2.57-.4-4.28-1.2-5.08s-2.51-1.21-5.08-1.21"/><path class="cls-2" stroke="white" stroke-width="2" d="M105.41,69.46c10.33-2.64,15.5-10.22,15.5-22.62,0-16-8.5-23.89-25.37-23.89a2,2,0,0,0-1.94,1.41L90.41,34.3a2.3,2.3,0,0,0,2.19,3h2.94c7,0,10,3,10,9.53,0,6.31-3.32,9.41-10,9.41H85.81a3.34,3.34,0,0,0-3.19,2.33l-2.83,8.81a2.46,2.46,0,0,0,2.34,3.21h6.63l14,21.36c3.1,4.48,5.17,5.63,10.33,5.63h4.37c5.39,0,5.85-1.27,3-5.51Z"/><path class="cls-2" stroke="white" stroke-width="2" d="M216.12,39.36H214.3c-2.11,0-3.62.52-4.5,1.55s-1.37,2.74-1.67,5.51L205,79.55a9.79,9.79,0,0,1-.73,3.37,1,1,0,0,1-.95.41,1.08,1.08,0,0,1-1-.45,9.08,9.08,0,0,1-.66-3.3L199,51.15c-.41-4.3-1.41-7.26-3.06-9s-4.26-2.72-7.73-2.74h-.12c-3.47,0-6.07.94-7.73,2.74s-2.65,4.75-3.06,9l-2.65,28.43a9.08,9.08,0,0,1-.66,3.3,1.05,1.05,0,0,1-1,.45,1,1,0,0,1-.95-.41,9.79,9.79,0,0,1-.73-3.37l-3.14-33.13c-.3-2.77-.84-4.52-1.67-5.51s-2.4-1.55-4.5-1.55h-1.82c-2.25,0-3.69.54-4.41,1.65s-.83,2.78-.52,5.5l3.63,34.92c.58,5.36,1.79,9.32,3.71,12.12s5.52,4.18,10.4,4.18c4.05,0,7.07-1.32,9-3.93s3-6.57,3.49-12.39l2.15-23.3h1.14l2.15,23.3c.51,5.82,1.65,9.87,3.48,12.39s4.91,3.93,9,3.93c4.88,0,8.38-1.41,10.4-4.18s3.13-6.76,3.71-12.12l3.63-34.92c.31-2.72.14-4.47-.52-5.5s-2.17-1.65-4.41-1.65"/><path class="cls-2" stroke="white" stroke-width="2" d="M242.57,18.94h-2c-2.47,0-4.27.41-5.37,1.22s-2,2.43-2.84,4.82l-.72,2.3a2.63,2.63,0,0,0,2.51,3.42h9.11a2.64,2.64,0,0,0,2.51-1.83L247,25c.8-2.34.9-3.95.27-4.78s-2.2-1.25-4.69-1.25"/></svg>