<svg id="Capa_1" data-name="Capa 1" xmlns="http://www.w3.org/2000/svg" viewBox="0 0 24 24"><path fill="white" d="M12,.29h8.86a2.61,2.61,0,0,1,2.85,2.85V20.92a2.62,2.62,0,0,1-2.85,2.85H3A2.61,2.61,0,0,1,.2,20.92V3.13A2.6,2.6,0,0,1,3.05.29Zm5.75,13.05.1.17c-.66.63-1.33,1.25-2,1.89a1.29,1.29,0,0,0,0,1.82,1.27,1.27,0,0,0,1.86,0Q19.84,15.14,22,13a1.24,1.24,0,0,0,0-1.85q-2.13-2.19-4.31-4.33a1.27,1.27,0,0,0-1.9.11,1.29,1.29,0,0,0,.14,1.81c.62.63,1.27,1.24,1.91,1.85l-.08.16H8.18A1.32,1.32,0,0,0,6.73,12a1.3,1.3,0,0,0,1.41,1.29c1.28,0,2.56,0,3.84,0Z"/></svg>