<svg id="Capa_1" data-name="Capa 1" xmlns="http://www.w3.org/2000/svg" viewBox="0 0 300 156.4"><defs><style>.cls-1{fill:#5359a3;}.cls-2{fill:#312e49;}</style></defs><path class="cls-1" d="M287.39,78c-1.76-2.8-4.7-5.3-8.76-7.44L238.2,50.3c-3.79-1.82-6.13-2.11-7.84-1s-2.48,3.39-2.48,7.49v2.61c0,3.57.59,6.26,1.81,8.2s3.38,3.65,6.61,5.21l32.18,15.66.35.17c-.11.07-.24.13-.4.21l-32.12,15.62c-3.24,1.57-5.41,3.28-6.62,5.22s-1.81,4.63-1.81,8.2v2.6c0,4.11.76,6.42,2.48,7.5a4.2,4.2,0,0,0,2.32.63,13.61,13.61,0,0,0,5.57-1.68l40.44-20.29c4-2.11,6.94-4.61,8.7-7.42a19.61,19.61,0,0,0,2.68-10.59A19.63,19.63,0,0,0,287.39,78"/><path class="cls-1" d="M149.18,8.76c-1.09-1.44-3.84-2.17-8.18-2.17h-3.51c-4.3,0-7.45.71-9.35,2.12s-3.57,4.23-5,8.41l-38.32,122c-1.4,4.21-1.56,7.08-.47,8.53s3.83,2.17,8.17,2.17h2.89c4.31,0,7.46-.71,9.36-2.12s3.56-4.16,5-8.2L148.7,17.09c1.4-4.08,1.57-6.88.48-8.33"/><path class="cls-1" d="M69.64,49.28c-1.73-1.1-4.09-.78-7.89,1L21.31,70.62c-4,2.11-6.94,4.61-8.7,7.42A19.61,19.61,0,0,0,9.93,88.63a19.63,19.63,0,0,0,2.68,10.59c1.75,2.8,4.7,5.3,8.76,7.44L61.8,127a13.41,13.41,0,0,0,5.52,1.65,4.22,4.22,0,0,0,2.32-.63c1.71-1.08,2.48-3.39,2.48-7.49v-2.61c0-3.57-.59-6.25-1.81-8.19s-3.38-3.66-6.61-5.22L31.52,88.81l-.35-.18c.11-.06.24-.13.4-.2L63.69,72.8c3.24-1.57,5.41-3.27,6.62-5.22s1.81-4.62,1.81-8.2v-2.6c0-4.11-.76-6.42-2.48-7.5"/><path class="cls-2" d="M181.28,94.61c18-4.61,27-17.81,27-39.42,0-27.8-14.8-41.61-44.21-41.61A3.53,3.53,0,0,0,160.71,16l-5.56,17.31A4,4,0,0,0,159,38.59h5.11c12.2,0,17.4,5.2,17.4,16.6,0,11-5.8,16.41-17.4,16.41h-17a5.84,5.84,0,0,0-5.56,4.05L136.64,91a4.3,4.3,0,0,0,4.09,5.61h11.54l24.41,37.21c5.4,7.8,9,9.8,18,9.8h7.6c9.4,0,10.2-2.2,5.2-9.6Z"/></svg>